<mxfile host="app.diagrams.net" agent="Mozilla/5.0 (X11; Linux x86_64; rv:135.0) Gecko/20100101 Firefox/135.0" version="26.0.11">
  <diagram name="第 1 页" id="YmUqLhz5R0bkZE3lp7uO">
    <mxGraphModel dx="1664" dy="865" grid="1" gridSize="10" guides="1" tooltips="1" connect="1" arrows="1" fold="1" page="1" pageScale="1" pageWidth="827" pageHeight="1169" math="0" shadow="0">
      <root>
        <mxCell id="0" />
        <mxCell id="1" parent="0" />
        <mxCell id="GfvX9sRTr9rwXGgZGpti-34" value="" style="rounded=0;whiteSpace=wrap;html=1;strokeColor=#66B2FF;dashed=1;strokeWidth=3;glass=1;fillColor=none;" vertex="1" parent="1">
          <mxGeometry x="220" y="85" width="610" height="315" as="geometry" />
        </mxCell>
        <mxCell id="GfvX9sRTr9rwXGgZGpti-16" value="" style="rounded=1;whiteSpace=wrap;html=1;strokeWidth=2;" vertex="1" parent="1">
          <mxGeometry x="358" y="330" width="420" height="50" as="geometry" />
        </mxCell>
        <mxCell id="GfvX9sRTr9rwXGgZGpti-1" value="" style="ellipse;whiteSpace=wrap;html=1;aspect=fixed;strokeWidth=2;" vertex="1" parent="1">
          <mxGeometry x="360" y="340" width="30" height="30" as="geometry" />
        </mxCell>
        <mxCell id="GfvX9sRTr9rwXGgZGpti-7" value="" style="ellipse;whiteSpace=wrap;html=1;aspect=fixed;strokeWidth=2;" vertex="1" parent="1">
          <mxGeometry x="404" y="340" width="30" height="30" as="geometry" />
        </mxCell>
        <mxCell id="GfvX9sRTr9rwXGgZGpti-8" value="" style="ellipse;whiteSpace=wrap;html=1;aspect=fixed;strokeWidth=2;" vertex="1" parent="1">
          <mxGeometry x="450" y="340" width="30" height="30" as="geometry" />
        </mxCell>
        <mxCell id="GfvX9sRTr9rwXGgZGpti-9" value="" style="ellipse;whiteSpace=wrap;html=1;aspect=fixed;strokeWidth=2;" vertex="1" parent="1">
          <mxGeometry x="500" y="340" width="30" height="30" as="geometry" />
        </mxCell>
        <mxCell id="GfvX9sRTr9rwXGgZGpti-10" value="" style="ellipse;whiteSpace=wrap;html=1;aspect=fixed;strokeWidth=2;" vertex="1" parent="1">
          <mxGeometry x="604" y="340" width="30" height="30" as="geometry" />
        </mxCell>
        <mxCell id="GfvX9sRTr9rwXGgZGpti-11" value="" style="ellipse;whiteSpace=wrap;html=1;aspect=fixed;strokeWidth=2;" vertex="1" parent="1">
          <mxGeometry x="648" y="340" width="30" height="30" as="geometry" />
        </mxCell>
        <mxCell id="GfvX9sRTr9rwXGgZGpti-12" value="" style="ellipse;whiteSpace=wrap;html=1;aspect=fixed;strokeWidth=2;" vertex="1" parent="1">
          <mxGeometry x="694" y="340" width="30" height="30" as="geometry" />
        </mxCell>
        <mxCell id="GfvX9sRTr9rwXGgZGpti-13" value="" style="ellipse;whiteSpace=wrap;html=1;aspect=fixed;strokeWidth=2;" vertex="1" parent="1">
          <mxGeometry x="744" y="340" width="30" height="30" as="geometry" />
        </mxCell>
        <mxCell id="GfvX9sRTr9rwXGgZGpti-14" value="" style="endArrow=none;dashed=1;html=1;dashPattern=1 3;strokeWidth=2;rounded=0;exitX=0;exitY=0.5;exitDx=0;exitDy=0;" edge="1" parent="1">
          <mxGeometry width="50" height="50" relative="1" as="geometry">
            <mxPoint x="540.0000000000023" y="356" as="sourcePoint" />
            <mxPoint x="560" y="356" as="targetPoint" />
          </mxGeometry>
        </mxCell>
        <mxCell id="GfvX9sRTr9rwXGgZGpti-15" value="" style="endArrow=none;dashed=1;html=1;dashPattern=1 3;strokeWidth=2;rounded=0;exitX=0;exitY=0.5;exitDx=0;exitDy=0;" edge="1" parent="1">
          <mxGeometry width="50" height="50" relative="1" as="geometry">
            <mxPoint x="571.0000000000023" y="356" as="sourcePoint" />
            <mxPoint x="591" y="356" as="targetPoint" />
          </mxGeometry>
        </mxCell>
        <mxCell id="GfvX9sRTr9rwXGgZGpti-17" value="" style="rounded=1;whiteSpace=wrap;html=1;strokeWidth=2;" vertex="1" parent="1">
          <mxGeometry x="360" y="105" width="420" height="50" as="geometry" />
        </mxCell>
        <mxCell id="GfvX9sRTr9rwXGgZGpti-18" value="" style="ellipse;whiteSpace=wrap;html=1;aspect=fixed;strokeWidth=2;" vertex="1" parent="1">
          <mxGeometry x="362" y="115" width="30" height="30" as="geometry" />
        </mxCell>
        <mxCell id="GfvX9sRTr9rwXGgZGpti-19" value="" style="ellipse;whiteSpace=wrap;html=1;aspect=fixed;strokeWidth=2;" vertex="1" parent="1">
          <mxGeometry x="406" y="115" width="30" height="30" as="geometry" />
        </mxCell>
        <mxCell id="GfvX9sRTr9rwXGgZGpti-20" value="" style="ellipse;whiteSpace=wrap;html=1;aspect=fixed;strokeWidth=2;" vertex="1" parent="1">
          <mxGeometry x="452" y="115" width="30" height="30" as="geometry" />
        </mxCell>
        <mxCell id="GfvX9sRTr9rwXGgZGpti-21" value="" style="ellipse;whiteSpace=wrap;html=1;aspect=fixed;strokeWidth=2;" vertex="1" parent="1">
          <mxGeometry x="502" y="115" width="30" height="30" as="geometry" />
        </mxCell>
        <mxCell id="GfvX9sRTr9rwXGgZGpti-22" value="" style="ellipse;whiteSpace=wrap;html=1;aspect=fixed;strokeWidth=2;" vertex="1" parent="1">
          <mxGeometry x="606" y="115" width="30" height="30" as="geometry" />
        </mxCell>
        <mxCell id="GfvX9sRTr9rwXGgZGpti-23" value="" style="ellipse;whiteSpace=wrap;html=1;aspect=fixed;strokeWidth=2;" vertex="1" parent="1">
          <mxGeometry x="650" y="115" width="30" height="30" as="geometry" />
        </mxCell>
        <mxCell id="GfvX9sRTr9rwXGgZGpti-24" value="" style="ellipse;whiteSpace=wrap;html=1;aspect=fixed;strokeWidth=2;" vertex="1" parent="1">
          <mxGeometry x="696" y="115" width="30" height="30" as="geometry" />
        </mxCell>
        <mxCell id="GfvX9sRTr9rwXGgZGpti-25" value="" style="ellipse;whiteSpace=wrap;html=1;aspect=fixed;strokeWidth=2;" vertex="1" parent="1">
          <mxGeometry x="746" y="115" width="30" height="30" as="geometry" />
        </mxCell>
        <mxCell id="GfvX9sRTr9rwXGgZGpti-26" value="" style="endArrow=none;dashed=1;html=1;dashPattern=1 3;strokeWidth=2;rounded=0;exitX=0;exitY=0.5;exitDx=0;exitDy=0;" edge="1" parent="1">
          <mxGeometry width="50" height="50" relative="1" as="geometry">
            <mxPoint x="542.0000000000023" y="131" as="sourcePoint" />
            <mxPoint x="562" y="131" as="targetPoint" />
          </mxGeometry>
        </mxCell>
        <mxCell id="GfvX9sRTr9rwXGgZGpti-27" value="" style="endArrow=none;dashed=1;html=1;dashPattern=1 3;strokeWidth=2;rounded=0;exitX=0;exitY=0.5;exitDx=0;exitDy=0;" edge="1" parent="1">
          <mxGeometry width="50" height="50" relative="1" as="geometry">
            <mxPoint x="573.0000000000023" y="131" as="sourcePoint" />
            <mxPoint x="593" y="131" as="targetPoint" />
          </mxGeometry>
        </mxCell>
        <mxCell id="GfvX9sRTr9rwXGgZGpti-32" style="edgeStyle=orthogonalEdgeStyle;rounded=0;orthogonalLoop=1;jettySize=auto;html=1;exitX=0.5;exitY=0;exitDx=0;exitDy=0;" edge="1" parent="1" source="GfvX9sRTr9rwXGgZGpti-28">
          <mxGeometry relative="1" as="geometry">
            <mxPoint x="562.8333333333335" y="160" as="targetPoint" />
          </mxGeometry>
        </mxCell>
        <mxCell id="GfvX9sRTr9rwXGgZGpti-28" value="&lt;b&gt;&lt;font style=&quot;font-size: 18px;&quot;&gt;Linear&lt;/font&gt;&lt;/b&gt; &lt;b&gt;&lt;font style=&quot;font-size: 16px;&quot;&gt;Layer&lt;/font&gt;&lt;/b&gt;" style="rounded=1;whiteSpace=wrap;html=1;strokeWidth=2;fillColor=#d5e8d4;strokeColor=#000000;" vertex="1" parent="1">
          <mxGeometry x="362" y="217" width="402" height="50" as="geometry" />
        </mxCell>
        <mxCell id="GfvX9sRTr9rwXGgZGpti-29" style="edgeStyle=orthogonalEdgeStyle;rounded=0;orthogonalLoop=1;jettySize=auto;html=1;exitX=0.5;exitY=0;exitDx=0;exitDy=0;entryX=0.517;entryY=1;entryDx=0;entryDy=0;entryPerimeter=0;" edge="1" parent="1">
          <mxGeometry relative="1" as="geometry">
            <mxPoint x="561.53" y="330" as="sourcePoint" />
            <mxPoint x="562.4659999999999" y="270" as="targetPoint" />
          </mxGeometry>
        </mxCell>
        <mxCell id="GfvX9sRTr9rwXGgZGpti-30" value="&lt;font style=&quot;font-size: 15px;&quot;&gt;Output Hidden &lt;b&gt;h&#39;&lt;sub&gt;t&lt;/sub&gt;&lt;/b&gt;&lt;/font&gt;" style="text;html=1;align=center;verticalAlign=middle;whiteSpace=wrap;rounded=0;" vertex="1" parent="1">
          <mxGeometry x="230" y="115" width="120" height="30" as="geometry" />
        </mxCell>
        <mxCell id="GfvX9sRTr9rwXGgZGpti-31" value="&lt;font style=&quot;font-size: 15px;&quot;&gt;Input Hidden &lt;b&gt;h&#39;&lt;sub&gt;t&lt;/sub&gt;&lt;/b&gt;&lt;/font&gt;" style="text;html=1;align=center;verticalAlign=middle;whiteSpace=wrap;rounded=0;" vertex="1" parent="1">
          <mxGeometry x="230" y="340" width="120" height="30" as="geometry" />
        </mxCell>
        <mxCell id="GfvX9sRTr9rwXGgZGpti-33" value="&lt;b&gt;&lt;font style=&quot;font-size: 23px;&quot;&gt;Dense&lt;/font&gt;&lt;/b&gt;" style="text;html=1;align=center;verticalAlign=middle;whiteSpace=wrap;rounded=0;" vertex="1" parent="1">
          <mxGeometry x="180" y="50" width="140" height="30" as="geometry" />
        </mxCell>
      </root>
    </mxGraphModel>
  </diagram>
</mxfile>
